<?xml version="1.0" encoding="UTF-8" standalone="no"?>
<svg
   width="113.6608"
   height="73.274101"
   viewBox="0 0 113.66081 73.274101"
   fill="none"
   version="1.1"
   id="svg93"
   sodipodi:docname="logo.svg"
   inkscape:version="1.1 (c68e22c387, 2021-05-23)"
   xmlns:inkscape="http://www.inkscape.org/namespaces/inkscape"
   xmlns:sodipodi="http://sodipodi.sourceforge.net/DTD/sodipodi-0.dtd"
   xmlns="http://www.w3.org/2000/svg"
   xmlns:svg="http://www.w3.org/2000/svg">
  <sodipodi:namedview
     id="namedview95"
     pagecolor="#505050"
     bordercolor="#eeeeee"
     borderopacity="1"
     inkscape:pageshadow="0"
     inkscape:pageopacity="0"
     inkscape:pagecheckerboard="0"
     showgrid="false"
     fit-margin-top="0"
     fit-margin-left="0"
     fit-margin-right="0"
     fit-margin-bottom="0"
     inkscape:zoom="5.3933333"
     inkscape:cx="76.946848"
     inkscape:cy="32.540173"
     inkscape:window-width="1920"
     inkscape:window-height="1017"
     inkscape:window-x="-8"
     inkscape:window-y="-8"
     inkscape:window-maximized="1"
     inkscape:current-layer="svg93" />
  <path
     d="m 63.398412,23.998395 -3.068,15.4255 h -4.2433 l 0.2868,-1.5196 c -1.2807,1.166 -2.8577,1.749 -4.7309,1.749 -1.2042,0 -2.3129,-0.2772 -3.3259,-0.8315 -1.0131,-0.5543 -1.8255,-1.3476 -2.4372,-2.3798 -0.5925,-1.0513 -0.8888,-2.2842 -0.8888,-3.6986 0,-1.7012 0.3727,-3.2304 1.1182,-4.5875 0.7646,-1.3763 1.7968,-2.4467 3.0966,-3.2113 1.2998,-0.7837 2.7334,-1.1755 4.3008,-1.1755 2.3702,0 4.0427,0.7741 5.0177,2.3224 l 0.401,-2.0931 z m -10.3792,11.9562 c 0.8793,0 1.663,-0.2102 2.3511,-0.6308 0.6882,-0.4396 1.2234,-1.0417 1.6057,-1.8063 0.3824,-0.7646 0.5734,-1.6438 0.5734,-2.6378 0,-1.0513 -0.3154,-1.8828 -0.9462,-2.4945 -0.6116,-0.6116 -1.4718,-0.9175 -2.5804,-0.9175 -0.8793,0 -1.663,0.2199 -2.3511,0.6595 -0.6882,0.4205 -1.2234,1.0131 -1.6057,1.7776 -0.3823,0.7646 -0.5734,1.6439 -0.5734,2.6379 0,1.0513 0.3058,1.8828 0.9175,2.4944 0.6308,0.6117 1.5005,0.9175 2.6091,0.9175 z"
     fill="url(#paint0_linear)"
     id="path63"
     style="fill:url(#paint0_linear)" />
  <path
     d="m 68.944412,39.653295 c -1.338,0 -2.609,-0.1434 -3.813,-0.4301 -1.185,-0.3058 -2.112,-0.6977 -2.781,-1.1755 l 1.72,-3.24 c 0.669,0.4397 1.481,0.7933 2.437,1.0609 0.975,0.2676 1.95,0.4014 2.924,0.4014 1.014,0 1.769,-0.1242 2.266,-0.3727 0.497,-0.2676 0.745,-0.6404 0.745,-1.1182 0,-0.3823 -0.22,-0.6595 -0.659,-0.8315 -0.44,-0.172 -1.147,-0.3536 -2.122,-0.5448 -1.109,-0.2102 -2.026,-0.4396 -2.753,-0.6881 -0.707,-0.2485 -1.328,-0.6499 -1.863,-1.2042 -0.516,-0.5735 -0.774,-1.3476 -0.774,-2.3225 0,-1.7012 0.707,-3.0296 2.121,-3.9853 1.434,-0.9558 3.307,-1.4336 5.62,-1.4336 1.07,0 2.112,0.1146 3.125,0.344 1.013,0.2294 1.873,0.5448 2.581,0.9462 l -1.606,3.2686 c -1.262,-0.7837 -2.781,-1.1756 -4.559,-1.1756 -0.975,0 -1.72,0.1434 -2.236,0.4301 -0.497,0.2867 -0.746,0.6499 -0.746,1.0896 0,0.4014 0.22,0.6976 0.66,0.8888 0.439,0.172 1.175,0.3632 2.208,0.5734 1.089,0.2103 1.978,0.4397 2.666,0.6881 0.707,0.2294 1.319,0.6213 1.835,1.1756 0.516,0.5543 0.774,1.3093 0.774,2.2651 0,1.7203 -0.726,3.0488 -2.179,3.9854 -1.433,0.9366 -3.297,1.4049 -5.591,1.4049 z"
     fill="url(#paint1_linear)"
     id="path65"
     style="fill:url(#paint1_linear)" />
  <path
     d="m 88.907412,30.707695 5.304,8.7162 h -5.189 l -3.67,-5.9924 -2.724,2.2651 -0.746,3.7273 h -4.473 l 4.244,-21.2745 h 4.473 l -2.38,11.8988 7.397,-6.0498 h 5.821 z"
     fill="url(#paint2_linear)"
     id="path67"
     style="fill:url(#paint2_linear)" />
  <path
     d="M 38.396612,15.052795 V 7.8847749 c 0,-3.16701 2.5674,-5.73438 5.7344,-5.73438 h 61.644398 c 3.167,0 5.735,2.56737 5.735,5.73438 V 48.025495 c 0,3.167 -2.568,5.7343 -5.735,5.7343 H 95.740412 l 3.353998,15.6509 c 0.293,1.3679 -1.345998,2.3027 -2.373998,1.3538 l -15.316,-14.1375 h -37.2734 c -3.167,0 -5.7344,-2.5673 -5.7344,-5.7344 v -2.8671"
     stroke="url(#paint3_linear)"
     stroke-width="4.30079"
     id="path69"
     style="stroke:url(#paint3_linear)" />
  <defs
     id="defs91">
    <linearGradient
       id="paint0_linear"
       x1="87.678703"
       y1="18.999001"
       x2="99.757797"
       y2="53.1105"
       gradientUnits="userSpaceOnUse"
       gradientTransform="translate(-42.687588,-0.84960506)">
      <stop
         stop-color="#485BFF"
         id="stop71" />
      <stop
         offset="1"
         stop-color="#FF59F8"
         id="stop73" />
    </linearGradient>
    <linearGradient
       id="paint1_linear"
       x1="87.678703"
       y1="18.999001"
       x2="99.757797"
       y2="53.1105"
       gradientUnits="userSpaceOnUse"
       gradientTransform="translate(-42.687588,-0.84960506)">
      <stop
         stop-color="#485BFF"
         id="stop76" />
      <stop
         offset="1"
         stop-color="#FF59F8"
         id="stop78" />
    </linearGradient>
    <linearGradient
       id="paint2_linear"
       x1="87.678703"
       y1="18.999001"
       x2="99.757797"
       y2="53.1105"
       gradientUnits="userSpaceOnUse"
       gradientTransform="translate(-42.687588,-0.84960506)">
      <stop
         stop-color="#485BFF"
         id="stop81" />
      <stop
         offset="1"
         stop-color="#FF59F8"
         id="stop83" />
    </linearGradient>
    <linearGradient
       id="paint3_linear"
       x1="81.084198"
       y1="3"
       x2="141.295"
       y2="77.546997"
       gradientUnits="userSpaceOnUse"
       gradientTransform="translate(-42.687588,-0.84960506)">
      <stop
         stop-color="#485BFF"
         id="stop86" />
      <stop
         offset="1"
         stop-color="#FF59F8"
         id="stop88" />
    </linearGradient>
  </defs>
  <text
     xml:space="preserve"
     style="font-style:normal;font-variant:normal;font-weight:bold;font-stretch:normal;font-size:32px;line-height:1.25;font-family:Poppins;-inkscape-font-specification:'Poppins Bold';fill:#1a1a1a;fill-opacity:1;stroke:none"
     x="-0.78399998"
     y="37.067577"
     id="text2393"><tspan
       sodipodi:role="line"
       id="tspan2391"
       x="-0.78399998"
       y="37.067577"
       style="font-style:normal;font-variant:normal;font-weight:bold;font-stretch:normal;font-size:28px;font-family:Poppins;-inkscape-font-specification:'Poppins Bold';fill:#1a1a1a">gg</tspan><tspan
       sodipodi:role="line"
       x="-0.78399998"
       y="77.067581"
       style="font-style:normal;font-variant:normal;font-weight:bold;font-stretch:normal;font-size:32px;font-family:Poppins;-inkscape-font-specification:'Poppins Bold';fill:#1a1a1a"
       id="tspan56216" /><tspan
       sodipodi:role="line"
       x="-0.78399998"
       y="117.06758"
       style="font-style:normal;font-variant:normal;font-weight:bold;font-stretch:normal;font-size:32px;font-family:Poppins;-inkscape-font-specification:'Poppins Bold';fill:#1a1a1a"
       id="tspan10329" /></text>
</svg>
